#N canvas 621 23 689 751 10;
#X floatatom 51 75 5 0 0 0 - - -, f 5;
#X text 9 75 pitch;
#X obj 50 518 dac~;
#X obj 51 13 adc~;
#X obj 50 440 osc~;
#X obj 50 414 sig~;
#X obj 83 325 nbx 5 14 1 2 0 0 empty empty empty 0 -8 0 10 -262144
-1 -1 1.79004 256;
#X obj 50 490 *~, f 4;
#X obj 100 395 receive fromGUI;
#X obj 100 430 route /mySlider;
#X floatatom 100 476 5 0 2 0 - - -, f 5;
#X obj 111 412 list trim;
#X floatatom 83 277 5 1 2 0 - - -, f 5;
#X obj 112 163 receive fromGUI;
#X obj 112 181 list trim;
#X obj 111 198 route /mySlider2;
#X obj 83 300 + 1;
#X msg 87 32 print;
#X text 146 473 amp slider value 0-2;
#X text 139 328 multiplier slider value 1-2;
#X text 138 143 turn tracking on / off;
#X obj 51 228 mtof;
#X obj 51 252 nbx 5 14 -1e+37 1e+37 0 0 empty empty empty 0 -8 0 10
-262144 -1 -1 0 256;
#X msg 208 451 0;
#X obj 209 385 receive fromGUI;
#X obj 209 403 list trim;
#X text 243 452 kill switch;
#X obj 337 384 receive fromGUI;
#X obj 337 402 list trim;
#X text 371 451 save switch;
#X obj 209 420 route /myToggle2;
#X obj 337 419 route /myToggle3;
#X obj 540 397 metro 10000;
#X obj 789 306 loadbang;
#X obj 96 81 receive fromGUI;
#X obj 96 98 list trim;
#X msg 336 450 0.7;
#X msg 689 365 10000;
#X msg 540 454 1;
#X obj 757 392 delay 5000;
#X msg 691 437 0;
#X msg 583 446 0;
#X obj 572 423 delay 50;
#X obj 96 115 route /myToggle;
#X msg 103 143 0;
#X obj 51 49 sigmund~ -hop 16384 pitch;
#X obj 145 228 receive fromGUI;
#X obj 144 246 list trim;
#X obj 144 263 route /mySlider3;
#X floatatom 144 300 5 0 0 0 - - -, f 5;
#X obj 83 346 +;
#X floatatom 83 370 5 0 0 0 - - -, f 5;
#X obj 63 301 bng 15 250 50 0 empty empty empty 17 7 0 10 -262144 -1
-1;
#X text 186 302 fine detune;
#X obj 144 318 - 0.5;
#X obj 145 364 nbx 5 14 -1e+37 1e+37 0 0 empty empty empty 0 -8 0 10
-262144 -1 -1 -0.0154325 256;
#X obj 51 196 spigot 1;
#X obj 50 389 * 1.01;
#X obj 151 340 / 10;
#X connect 0 0 56 0;
#X connect 3 0 45 0;
#X connect 4 0 7 0;
#X connect 5 0 4 0;
#X connect 6 0 50 0;
#X connect 7 0 2 0;
#X connect 8 0 11 0;
#X connect 9 0 10 0;
#X connect 10 0 7 1;
#X connect 11 0 9 0;
#X connect 12 0 16 0;
#X connect 12 0 52 0;
#X connect 13 0 14 0;
#X connect 14 0 15 0;
#X connect 15 0 12 0;
#X connect 16 0 6 0;
#X connect 17 0 45 0;
#X connect 21 0 22 0;
#X connect 22 0 57 0;
#X connect 23 0 10 0;
#X connect 24 0 25 0;
#X connect 25 0 30 0;
#X connect 27 0 28 0;
#X connect 28 0 31 0;
#X connect 30 0 23 0;
#X connect 31 0 36 0;
#X connect 32 0 38 0;
#X connect 32 0 42 0;
#X connect 33 0 37 0;
#X connect 33 0 39 0;
#X connect 34 0 35 0;
#X connect 35 0 43 0;
#X connect 36 0 10 0;
#X connect 37 0 32 1;
#X connect 39 0 40 0;
#X connect 42 0 41 0;
#X connect 43 0 44 0;
#X connect 43 0 56 1;
#X connect 44 0 56 1;
#X connect 45 0 0 0;
#X connect 46 0 47 0;
#X connect 47 0 48 0;
#X connect 48 0 49 0;
#X connect 49 0 52 0;
#X connect 49 0 54 0;
#X connect 50 0 51 0;
#X connect 51 0 57 1;
#X connect 52 0 6 0;
#X connect 52 0 57 0;
#X connect 54 0 58 0;
#X connect 55 0 50 1;
#X connect 56 0 21 0;
#X connect 57 0 5 0;
#X connect 58 0 55 0;
